<?xml version="1.0" encoding="UTF-8"?>
<svg id="Layer_2" data-name="Layer 2" xmlns="http://www.w3.org/2000/svg" xmlns:xlink="http://www.w3.org/1999/xlink" viewBox="0 0 231.37 149.37">
  <defs>
    <style>
      .cls-1 {
        fill: url(#Gold_Radial-10);
      }

      .cls-2 {
        fill: url(#Gold_Radial-11);
      }

      .cls-3 {
        fill: url(#Gold_Radial-15);
      }

      .cls-4 {
        fill: url(#Gold_Radial-13);
      }

      .cls-5 {
        fill: url(#Gold_Radial-14);
      }

      .cls-6 {
        fill: url(#Gold_Radial-19);
      }

      .cls-7 {
        fill: url(#Gold_Radial-12);
      }

      .cls-8 {
        fill: url(#Gold_Radial-18);
      }

      .cls-9 {
        fill: url(#Gold_Radial-16);
      }

      .cls-10 {
        fill: url(#Gold_Radial-17);
      }

      .cls-11 {
        fill: url(#Gold_Radial-22);
      }

      .cls-12 {
        fill: url(#Gold_Radial-23);
      }

      .cls-13 {
        fill: url(#Gold_Radial-24);
      }

      .cls-14 {
        fill: url(#Gold_Radial-25);
      }

      .cls-15 {
        fill: url(#Gold_Radial-20);
      }

      .cls-16 {
        fill: url(#Gold_Radial-21);
      }

      .cls-17 {
        fill: url(#Gold_Radial-26);
      }

      .cls-18 {
        fill: url(#Gold_Radial-27);
      }

      .cls-19 {
        fill: url(#Gold_Radial-28);
      }

      .cls-20 {
        fill: url(#Gold_Radial-29);
      }

      .cls-21 {
        fill: url(#Gold_Radial-46);
      }

      .cls-22 {
        fill: url(#Gold_Radial-42);
      }

      .cls-23 {
        fill: url(#Gold_Radial-44);
      }

      .cls-24 {
        fill: url(#Gold_Radial-45);
      }

      .cls-25 {
        fill: url(#Gold_Radial-47);
      }

      .cls-26 {
        fill: url(#Gold_Radial-41);
      }

      .cls-27 {
        fill: url(#Gold_Radial-43);
      }

      .cls-28 {
        fill: url(#Gold_Radial-35);
      }

      .cls-29 {
        fill: url(#Gold_Radial-38);
      }

      .cls-30 {
        fill: url(#Gold_Radial-31);
      }

      .cls-31 {
        fill: url(#Gold_Radial-36);
      }

      .cls-32 {
        fill: url(#Gold_Radial-37);
      }

      .cls-33 {
        fill: url(#Gold_Radial-30);
      }

      .cls-34 {
        fill: url(#Gold_Radial-34);
      }

      .cls-35 {
        fill: url(#Gold_Radial-40);
      }

      .cls-36 {
        fill: url(#Gold_Radial-32);
      }

      .cls-37 {
        fill: url(#Gold_Radial-33);
      }

      .cls-38 {
        fill: url(#Gold_Radial-39);
      }

      .cls-39 {
        fill: url(#Gold_Radial-6);
      }

      .cls-40 {
        fill: url(#Gold_Radial-5);
      }

      .cls-41 {
        fill: url(#Gold_Radial-4);
      }

      .cls-42 {
        fill: url(#Gold_Radial-3);
      }

      .cls-43 {
        fill: url(#Gold_Radial-9);
      }

      .cls-44 {
        fill: url(#Gold_Radial-2);
      }

      .cls-45 {
        fill: url(#Gold_Radial-8);
      }

      .cls-46 {
        fill: url(#Gold_Radial-7);
      }

      .cls-47 {
        fill: url(#Gold_Radial);
      }
    </style>
    <radialGradient id="Gold_Radial" data-name="Gold Radial" cx="197.73" cy="137.47" fx="197.73" fy="137.47" r="7.14" gradientUnits="userSpaceOnUse">
      <stop offset="0" stop-color="#fffbcc"/>
      <stop offset=".11" stop-color="#faf1ba"/>
      <stop offset=".34" stop-color="#efd98e"/>
      <stop offset=".37" stop-color="#eed688"/>
      <stop offset=".69" stop-color="#ebbb10"/>
      <stop offset="1" stop-color="#c3922e"/>
    </radialGradient>
    <radialGradient id="Gold_Radial-2" data-name="Gold Radial" cx="181.28" cy="143.28" fx="181.28" fy="143.28" r="5.01" xlink:href="#Gold_Radial"/>
    <radialGradient id="Gold_Radial-3" data-name="Gold Radial" cx="200.09" cy="128.7" fx="200.09" fy="128.7" r="12.19" xlink:href="#Gold_Radial"/>
    <radialGradient id="Gold_Radial-4" data-name="Gold Radial" cx="170.59" cy="140.63" fx="170.59" fy="140.63" r="6.9" xlink:href="#Gold_Radial"/>
    <radialGradient id="Gold_Radial-5" data-name="Gold Radial" cx="201.68" cy="118.89" fx="201.68" fy="118.89" r="16.49" xlink:href="#Gold_Radial"/>
    <radialGradient id="Gold_Radial-6" data-name="Gold Radial" cx="159.92" cy="137.96" fx="159.92" fy="137.96" r="8.81" xlink:href="#Gold_Radial"/>
    <radialGradient id="Gold_Radial-7" data-name="Gold Radial" cx="149.25" cy="135.3" fx="149.25" fy="135.3" r="10.73" xlink:href="#Gold_Radial"/>
    <radialGradient id="Gold_Radial-8" data-name="Gold Radial" cx="202.26" cy="108.08" fx="202.26" fy="108.08" r="19.9" xlink:href="#Gold_Radial"/>
    <radialGradient id="Gold_Radial-9" data-name="Gold Radial" cx="201.52" cy="96.35" fx="201.52" fy="96.35" r="22.27" xlink:href="#Gold_Radial"/>
    <radialGradient id="Gold_Radial-10" data-name="Gold Radial" cx="138.59" cy="132.63" fx="138.59" fy="132.63" r="12.65" xlink:href="#Gold_Radial"/>
    <radialGradient id="Gold_Radial-11" data-name="Gold Radial" cx="127.92" cy="129.96" fx="127.92" fy="129.96" r="14.59" xlink:href="#Gold_Radial"/>
    <radialGradient id="Gold_Radial-12" data-name="Gold Radial" cx="199.41" cy="83.79" fx="199.41" fy="83.79" r="23.6" xlink:href="#Gold_Radial"/>
    <radialGradient id="Gold_Radial-13" data-name="Gold Radial" cx="117.25" cy="127.3" fx="117.25" fy="127.3" r="16.52" xlink:href="#Gold_Radial"/>
    <radialGradient id="Gold_Radial-14" data-name="Gold Radial" cx="195.91" cy="70.54" fx="195.91" fy="70.54" r="23.93" xlink:href="#Gold_Radial"/>
    <radialGradient id="Gold_Radial-15" data-name="Gold Radial" cx="106.59" cy="124.63" fx="106.59" fy="124.63" r="18.46" xlink:href="#Gold_Radial"/>
    <radialGradient id="Gold_Radial-16" data-name="Gold Radial" cx="189.55" cy="57.23" fx="189.55" fy="57.23" r="22.35" xlink:href="#Gold_Radial"/>
    <radialGradient id="Gold_Radial-17" data-name="Gold Radial" cx="178.27" cy="46.48" fx="178.27" fy="46.48" r="17.7" xlink:href="#Gold_Radial"/>
    <radialGradient id="Gold_Radial-18" data-name="Gold Radial" cx="95.92" cy="121.97" fx="95.92" fy="121.97" r="20.39" xlink:href="#Gold_Radial"/>
    <radialGradient id="Gold_Radial-19" data-name="Gold Radial" cx="85.26" cy="119.3" fx="85.26" fy="119.3" r="22.33" xlink:href="#Gold_Radial"/>
    <radialGradient id="Gold_Radial-20" data-name="Gold Radial" cx="161.28" cy="36.43" fx="161.28" fy="36.43" r="9.26" xlink:href="#Gold_Radial"/>
    <radialGradient id="Gold_Radial-21" data-name="Gold Radial" cx="156.45" cy="26.1" fx="156.45" fy="26.1" r="9.01" xlink:href="#Gold_Radial"/>
    <radialGradient id="Gold_Radial-22" data-name="Gold Radial" cx="74.6" cy="116.64" fx="74.6" fy="116.64" r="24.27" xlink:href="#Gold_Radial"/>
    <radialGradient id="Gold_Radial-23" data-name="Gold Radial" cx="63.93" cy="113.97" fx="63.93" fy="113.97" r="26.21" xlink:href="#Gold_Radial"/>
    <radialGradient id="Gold_Radial-24" data-name="Gold Radial" cx="150.24" cy="16.24" fx="150.24" fy="16.24" r="7.75" xlink:href="#Gold_Radial"/>
    <radialGradient id="Gold_Radial-25" data-name="Gold Radial" cx="142.31" cy="7.24" fx="142.31" fy="7.24" r="5.14" xlink:href="#Gold_Radial"/>
    <radialGradient id="Gold_Radial-26" data-name="Gold Radial" cx="53.27" cy="111.31" fx="53.27" fy="111.31" r="28.15" xlink:href="#Gold_Radial"/>
    <radialGradient id="Gold_Radial-27" data-name="Gold Radial" cx="42.61" cy="108.51" fx="42.61" fy="108.51" r="30.01" xlink:href="#Gold_Radial"/>
    <radialGradient id="Gold_Radial-28" data-name="Gold Radial" cx="31.94" cy="104.35" fx="31.94" fy="104.35" r="30.93" xlink:href="#Gold_Radial"/>
    <radialGradient id="Gold_Radial-29" data-name="Gold Radial" cx="186.22" cy="135.45" fx="186.22" fy="135.45" r="5.45" xlink:href="#Gold_Radial"/>
    <radialGradient id="Gold_Radial-30" data-name="Gold Radial" cx="178.84" cy="127.44" fx="178.84" fy="127.44" r="8.07" xlink:href="#Gold_Radial"/>
    <radialGradient id="Gold_Radial-31" data-name="Gold Radial" cx="171.56" cy="119.52" fx="171.56" fy="119.52" r="10.72" xlink:href="#Gold_Radial"/>
    <radialGradient id="Gold_Radial-32" data-name="Gold Radial" cx="164.3" cy="111.64" fx="164.3" fy="111.64" r="13.36" xlink:href="#Gold_Radial"/>
    <radialGradient id="Gold_Radial-33" data-name="Gold Radial" cx="157.05" cy="103.75" fx="157.05" fy="103.75" r="16.02" xlink:href="#Gold_Radial"/>
    <radialGradient id="Gold_Radial-34" data-name="Gold Radial" cx="149.8" cy="95.87" fx="149.8" fy="95.87" r="18.67" xlink:href="#Gold_Radial"/>
    <radialGradient id="Gold_Radial-35" data-name="Gold Radial" cx="142.55" cy="88" fx="142.55" fy="88" r="21.31" xlink:href="#Gold_Radial"/>
    <radialGradient id="Gold_Radial-36" data-name="Gold Radial" cx="135.31" cy="80.13" fx="135.31" fy="80.13" r="23.96" xlink:href="#Gold_Radial"/>
    <radialGradient id="Gold_Radial-37" data-name="Gold Radial" cx="128.06" cy="72.26" fx="128.06" fy="72.26" r="26.6" xlink:href="#Gold_Radial"/>
    <radialGradient id="Gold_Radial-38" data-name="Gold Radial" cx="120.82" cy="64.39" fx="120.82" fy="64.39" r="29.25" xlink:href="#Gold_Radial"/>
    <radialGradient id="Gold_Radial-39" data-name="Gold Radial" cx="113.58" cy="56.52" fx="113.58" fy="56.52" r="31.9" xlink:href="#Gold_Radial"/>
    <radialGradient id="Gold_Radial-40" data-name="Gold Radial" cx="106.33" cy="48.65" fx="106.33" fy="48.65" r="34.55" xlink:href="#Gold_Radial"/>
    <radialGradient id="Gold_Radial-41" data-name="Gold Radial" cx="99.08" cy="40.77" fx="99.08" fy="40.77" r="37.2" xlink:href="#Gold_Radial"/>
    <radialGradient id="Gold_Radial-42" data-name="Gold Radial" cx="91.09" cy="35.29" fx="91.09" fy="35.29" r="38.34" xlink:href="#Gold_Radial"/>
    <radialGradient id="Gold_Radial-43" data-name="Gold Radial" cx="53.21" cy="49.71" fx="53.21" fy="49.71" r="14.45" xlink:href="#Gold_Radial"/>
    <radialGradient id="Gold_Radial-44" data-name="Gold Radial" cx="89.86" cy="13.79" fx="89.86" fy="13.79" r="12.39" xlink:href="#Gold_Radial"/>
    <radialGradient id="Gold_Radial-45" data-name="Gold Radial" cx="40.41" cy="47.74" fx="40.41" fy="47.74" r="11.35" xlink:href="#Gold_Radial"/>
    <radialGradient id="Gold_Radial-46" data-name="Gold Radial" cx="21.47" cy="98.09" fx="21.47" fy="98.09" r="30.4" xlink:href="#Gold_Radial"/>
    <radialGradient id="Gold_Radial-47" data-name="Gold Radial" cx="7.05" cy="101.26" fx="7.05" fy="101.26" r="17.07" xlink:href="#Gold_Radial"/>
  </defs>
  <g id="Layer_1-2" data-name="Layer 1">
    <g>
      <path class="cls-47" d="M200.18,144.06c1.79-.85,3.52-1.8,5.19-2.84-1.82-6.5-8.15-11.1-15.29-10.25l2.41,5.6c4.01.35,7.23,3.5,7.69,7.49Z"/>
      <path class="cls-44" d="M178.25,149.33c2-.06,3.97-.22,5.91-.48-1.47-2.91-1.15-6.34.82-8.93l-5.04-2.69c-2.38,3.59-2.99,8.02-1.69,12.1Z"/>
      <path class="cls-42" d="M210.21,137.86c1.57-1.22,3.07-2.52,4.49-3.9-5.28-10.89-17.47-16.62-29.22-13.63l2.28,5.29c9.57-1.97,18.98,3.36,22.45,12.25Z"/>
      <path class="cls-41" d="M166.62,149.37h5.78c-1.19-5.32-.15-10.52,2.53-14.81l-5.03-2.68c-3.08,5.09-4.36,11.24-3.29,17.49Z"/>
      <path class="cls-40" d="M218.78,129.57c1.3-1.56,2.51-3.2,3.63-4.91-9.1-13.66-25.95-19.6-41.45-14.84l2.26,5.24c13.93-3.97,28.49,2.18,35.56,14.5Z"/>
      <path class="cls-39" d="M155.18,149.37h5.71c-1.01-7.22.52-14.24,4.02-20.15l-5-2.67c-3.95,6.77-5.69,14.68-4.73,22.82Z"/>
      <path class="cls-46" d="M143.79,149.37h5.68c-.87-8.58.83-17.48,5.44-25.48l-5-2.67c-4.77,8.34-7.03,18.03-6.12,28.15Z"/>
      <path class="cls-45" d="M225.52,119.29c.95-1.88,1.82-3.82,2.55-5.82-12.86-14.79-33.18-20.29-51.63-14.09l2.25,5.22c16.92-5.47,35.71.14,46.83,14.69Z"/>
      <path class="cls-43" d="M171.94,88.95l2.25,5.22c19.47-6.73,41.09-1.79,55.75,13,.51-2.18.91-4.42,1.15-6.69-16.43-14.52-39.06-18.64-59.15-11.53Z"/>
      <path class="cls-1" d="M132.43,149.37h5.68c-.88-10.99,1.55-21.56,6.8-30.81l-5-2.67c-5.66,10.02-8.35,21.48-7.48,33.48Z"/>
      <path class="cls-2" d="M121.07,149.37h5.68c-.87-13.03,2.13-25.41,8.16-36.15l-5-2.67c-6.4,11.42-9.7,24.7-8.84,38.81Z"/>
      <path class="cls-7" d="M231.37,93.37c-.06-2.52-.28-5-.67-7.43-19.49-12.89-43.11-14.81-63.27-7.42l2.25,5.22c20.44-7.38,43.73-4.17,61.68,9.64Z"/>
      <path class="cls-4" d="M109.71,149.37h5.68c-.84-15.01,2.68-29.21,9.53-41.48l-5-2.67c-7.42,13.34-11.02,28.5-10.21,44.14Z"/>
      <path class="cls-5" d="M228.87,78.19c-.87-2.75-1.96-5.42-3.23-7.97-20.33-9.24-42.91-9.55-62.69-2.13l2.25,5.2c20.5-7.61,43.83-6.18,63.68,4.89Z"/>
      <path class="cls-3" d="M98.37,149.37h5.66c-.82-16.8,3.13-32.84,10.88-46.81l-5-2.67c-8.17,14.74-12.36,31.66-11.55,49.48Z"/>
      <path class="cls-9" d="M220.64,62.12c-2.16-2.91-4.6-5.6-7.28-8.02-18.4-4.37-37.44-3.08-54.9,3.6l2.24,5.2c18.95-7.18,40.16-7.69,59.94-.78Z"/>
      <path class="cls-10" d="M202.57,46.48c-5.59-3.02-11.76-5.08-18.31-5.99-10.61.75-20.79,3.11-30.3,6.8l2.24,5.19c14.68-5.65,30.52-7.73,46.37-6Z"/>
      <path class="cls-8" d="M87.02,149.37h5.67c-.79-18.39,3.44-36.28,12.21-52.15l-4.98-2.66c-9.18,16.63-13.69,35.39-12.9,54.8Z"/>
      <path class="cls-6" d="M75.69,149.37h5.67c-.79-20.28,3.93-39.97,13.57-57.47l-5-2.66c-9.86,17.92-15.04,38.45-14.24,60.13Z"/>
      <path class="cls-15" d="M173.09,36.13c-.67-1.83-1.43-3.62-2.28-5.35-7.38,1.35-14.51,3.42-21.34,6.1l2.25,5.21c6.83-2.66,13.97-4.69,21.37-5.95Z"/>
      <path class="cls-16" d="M167.91,25.57c-1.1-1.75-2.3-3.43-3.58-5.04-6.66,1.47-13.12,3.47-19.35,5.94l2.24,5.19c6.64-2.61,13.55-4.67,20.69-6.09Z"/>
      <path class="cls-11" d="M64.35,149.37h5.67c-.78-22.31,4.46-43.77,14.92-62.8l-5-2.66c-10.85,19.76-16.37,42.15-15.58,65.46Z"/>
      <path class="cls-12" d="M53.01,149.37h5.67c-.78-24.09,4.89-47.43,16.24-68.13l-5-2.67c-11.81,21.55-17.68,45.78-16.91,70.8Z"/>
      <path class="cls-13" d="M159.99,15.73c-1.63-1.61-3.36-3.11-5.18-4.5-4.89,1.35-9.66,2.98-14.31,4.84l2.24,5.2c5.58-2.22,11.34-4.09,17.25-5.54Z"/>
      <path class="cls-14" d="M148.62,7.13c-2.35-1.34-4.81-2.51-7.36-3.5-1.78.64-3.53,1.31-5.27,2.01l2.25,5.2c3.4-1.36,6.86-2.6,10.39-3.71Z"/>
      <path class="cls-17" d="M41.67,149.37h5.67c-.76-25.86,5.31-51,17.6-73.46l-5-2.67c-12.3,22.49-19.05,48.46-18.26,76.13Z"/>
      <path class="cls-18" d="M30.31,148.07c1.85.48,3.74.83,5.68,1.04-.72-27.72,5.87-54.61,18.94-78.54l-5.01-2.67c-13,23.81-20.15,51.13-19.61,80.17Z"/>
      <path class="cls-19" d="M18.96,143.14c1.8,1.13,3.69,2.14,5.66,2.98-.17-27.91,6.49-55.57,20.31-80.88l-4.99-2.66c-13.09,24-20.66,51.43-20.97,80.56Z"/>
      <g>
        <path class="cls-20" d="M179.94,137.23l5.04,2.69c1.75-2.31,4.55-3.61,7.52-3.34l-2.41-5.6c-4.23.5-7.9,2.87-10.14,6.25Z"/>
        <path class="cls-33" d="M169.91,131.89l5.03,2.68c2.83-4.53,7.42-7.85,12.83-8.95l-2.28-5.29c-6.58,1.67-12.15,5.9-15.57,11.56Z"/>
        <path class="cls-30" d="M159.91,126.55l5,2.67c4.02-6.8,10.55-11.94,18.3-14.15l-2.26-5.24c-8.93,2.74-16.42,8.8-21.04,16.73Z"/>
        <path class="cls-36" d="M149.91,121.22l5,2.67c5.22-9.06,13.68-16.02,23.78-19.29l-2.25-5.22c-11.29,3.79-20.71,11.65-26.53,21.84Z"/>
        <path class="cls-37" d="M139.91,115.89l5,2.67c6.42-11.32,16.82-20.08,29.28-24.39l-2.25-5.22c-13.64,4.83-25,14.5-32.03,26.94Z"/>
        <path class="cls-34" d="M169.69,83.73l-2.25-5.22c-16,5.87-29.3,17.35-37.53,32.05l5,2.67c7.63-13.57,19.96-24.15,34.78-29.49Z"/>
        <path class="cls-28" d="M165.19,73.31l-2.25-5.2c-18.35,6.89-33.6,20.17-43.03,37.12l5,2.67c8.83-15.82,23.1-28.21,40.28-34.59Z"/>
        <path class="cls-31" d="M160.7,62.9l-2.24-5.2c-20.71,7.92-37.91,23-48.54,42.2l5,2.67c10.03-18.08,26.25-32.25,45.79-39.66Z"/>
        <path class="cls-32" d="M156.2,52.48l-2.24-5.19c-23.07,8.95-42.19,25.83-54.04,47.28l4.98,2.66c11.24-20.33,29.41-36.31,51.3-44.75Z"/>
        <path class="cls-29" d="M151.72,42.09l-2.25-5.21c-25.42,9.97-46.5,28.65-59.55,52.36l5,2.66c12.44-22.58,32.55-40.35,56.8-49.81Z"/>
        <path class="cls-38" d="M147.22,31.66l-2.24-5.19c-27.79,10.99-50.8,31.48-65.05,57.44l5,2.66c13.65-24.83,35.69-44.43,62.29-54.91Z"/>
        <path class="cls-35" d="M142.73,21.27l-2.24-5.2c-30.14,12.02-55.12,34.29-70.58,62.5l5,2.67c14.86-27.09,38.85-48.46,67.81-59.97Z"/>
        <path class="cls-26" d="M138.24,10.84l-2.25-5.2c-32.5,13.04-59.4,37.14-76.06,67.61l5,2.67c16.06-29.34,41.98-52.54,73.3-65.07Z"/>
        <path class="cls-22" d="M132.26,1.04C128.32.26,124.61-.05,120.8,0c-30.05,14.76-54.88,38.59-70.88,67.9l5.01,2.67C71.95,39.45,99.25,14.72,132.26,1.04Z"/>
        <path class="cls-27" d="M59.25,34.23c-7.34,8.76-13.81,18.25-19.32,28.35l4.99,2.66c6.04-11.06,13.28-21.36,21.56-30.74-2.44-.31-4.86-.4-7.23-.28Z"/>
        <path class="cls-23" d="M76.03,24.55c8.43-8.1,17.7-15.31,27.67-21.52-11.41,3.98-21.11,11.63-27.67,21.52Z"/>
        <path class="cls-24" d="M40.62,39.96c-3.87,5.54-7.42,11.33-10.67,17.3l4.98,2.66c4.66-8.56,10-16.7,15.95-24.34-3.63.99-7.08,2.47-10.26,4.39Z"/>
      </g>
      <path class="cls-21" d="M8.01,133.02c1.6,2.14,3.4,4.12,5.38,5.91.96-28.53,8.66-55.38,21.54-79.02l-4.98-2.66c-12.42,22.79-20.17,48.47-21.94,75.77Z"/>
      <path class="cls-25" d="M3.07,124.34c1.75-16.07,5.52-31.54,11.04-46.16C.6,89.81-3.5,108.52,3.07,124.34Z"/>
    </g>
  </g>
</svg>